<svg width="840" height="660" viewBox="0 0 840 660" fill="none" xmlns="http://www.w3.org/2000/svg">
<path d="M200 100C200 155.228 155.228 200 100 200C44.7715 200 0 155.228 0 100C0 44.7715 44.7715 0 100 0C155.228 0 200 44.7715 200 100Z" fill="#FF9999"/>
<path d="M840 460C840 515.228 795.228 560 740 560C684.772 560 640 515.228 640 460C640 404.772 684.772 360 740 360C795.228 360 840 404.772 840 460Z" fill="#9999FF"/>
<path d="M400 560C400 615.228 355.228 660 300 660C244.772 660 200 615.228 200 560C200 504.772 244.772 460 300 460C355.228 460 400 504.772 400 560Z" fill="#99FF99"/>
</svg>
